<svg xmlns="http://www.w3.org/2000/svg" xmlns:xlink="http://www.w3.org/1999/xlink" width="256" height="256" viewBox="0 0 256 256"><defs><path id="a" d="M77.175 50.494c1.617-2.362 2.959-4.382 2.988-4.485.047-.2-6.855-10.516-8.707-13.021-1.295-1.752-3.885-4.4-4.676-4.787-.44-.211-.873-.286-1.798-.28-1.084 0-1.313.051-2.104.468-1.4.73-3.914 2.887-3.914 3.355 0 .12.147.382.334.582.293.32 3.041 4.508 12.96 19.754.973 1.495 1.811 2.716 1.87 2.71.058 0 1.43-1.934 3.047-4.296M56.749 79.737c.323-.148.815-.56 1.09-.907 1.025-1.29 10.172-14.961 10.107-15.115-.064-.172-6.779-10.54-12.199-18.83-2.636-4.029-3.146-4.736-3.31-4.565-.633.662-25.582 39.2-25.441 39.303.48.342 1.54.365 14.97.37 13.524.006 14.227-.005 14.783-.256m108.268.2c.24-.046.521-.132.627-.2.152-.097-2.877-4.936-12.89-20.61-7.202-11.27-14.034-21.888-15.182-23.606a744.835 744.835 0 0 1-4.506-6.807c-1.324-2.031-2.46-3.714-2.525-3.737-.123-.04-26.402 38.994-26.496 39.365-.064.251 9.035 13.592 9.932 14.556.55.6 1.195.93 2.097 1.084.65.114 48.292.063 48.943-.045M15.002 82.145c.205-1.027 1.008-3.292 1.594-4.49.908-1.86 8.525-13.752 22.546-35.212 5.479-8.377 7.096-10.727 9.592-13.906.732-.936 1.336-1.769 1.336-1.848 0-.223-3.03-.183-4.922.068-5.566.736-9.392 3.332-13.383 9.055-2.056 2.945-19.81 30.18-20.36 31.23-1.055 1.996-1.395 3.223-1.407 5.072-.006 1.888.223 2.87 1.113 4.77.909 1.929 3.463 5.928 3.704 5.786.052-.029.134-.268.187-.525m164.528-.508c1.33-1.9 1.945-2.95 2.684-4.553 1.728-3.75 1.593-6.288-.487-9.392-.299-.434-5.42-8.548-11.39-18.031-8.268-13.135-12.117-19.098-16.19-25.067-7.517-11.046-8.062-11.651-10.581-11.885-1.898-.171-3.457.57-5.648 2.699-1.143 1.101-1.149 1.107-.88 1.41 1.378 1.534 39.129 60.26 40.13 62.423.317.679.71 1.814.88 2.522.17.707.351 1.29.404 1.29.047 0 .533-.634 1.078-1.416M65.35 98.281c2.063-.559 4.008-1.74 5.778-3.503 1.265-1.261 1.365-1.392 4.992-6.802 49.317-73.418 47.524-70.765 50.384-74.417.867-1.107 1.582-2.071 1.582-2.145.006-.2-4.46.005-5.947.274-5.186.93-8.625 3.457-12.738 9.369-4.518 6.493-32.162 46.869-37.095 54.167-3.258 4.827-6.27 9.209-6.698 9.745-1.675 2.106-4.119 3.664-6.86 4.383-1.735.45-4.9.53-18.575.473-13.277-.051-13.417-.057-14.613-.37-.662-.178-1.23-.297-1.265-.263-.14.148.428 2.807.82 3.834.416 1.09 1.518 2.939 2.156 3.623.381.411 1.178.765 2.614 1.17 2.53.72 2.068.702 18.76.72 14.936.016 15.762.005 16.706-.258m96.52.092c1.88-.354 3.175-.793 3.655-1.239.627-.576 1.664-2.527 2.14-4.017.415-1.312.942-3.805.825-3.925-.03-.034-.597.068-1.248.228-1.154.28-1.945.291-25.874.382-17.994.074-25.031.052-25.98-.068-3.557-.445-6.358-1.769-8.584-4.046-1.06-1.084-1.799-2.11-6.035-8.33-1.5-2.197-2.772-3.983-2.83-3.972-.135.04-5.438 7.943-5.52 8.228-.082.291 6.967 10.75 8.262 12.268 2.168 2.534 5.355 4.377 8.097 4.673.563.063 12.451.097 26.408.086 23.127-.023 25.5-.046 26.683-.268m-128.816 9.894c-3-.263-6.122-.999-9.023-2.14-3.422-1.335-6.668-3.886-9.732-7.64-1.559-1.906-7.406-9.678-8.924-11.863C1.543 81.118-.02 76.941.002 72.256c.018-3.8 1.043-7.309 3.205-10.927 1.565-2.624 20.56-31.45 21.627-32.832 5.385-6.944 11.437-10.499 19.464-11.446 2.15-.257 15.732-.308 18.246-.068 5.584.525 9.234 2.134 13.066 5.768 2.274 2.146 3.615 3.892 8.022 10.42 2.021 3.007 2.689 3.891 2.818 3.76.088-.097 3.691-5.33 8.01-11.623 4.318-6.294 8.337-12.046 8.923-12.782 1.46-1.82 4.424-4.684 6.07-5.871 1.53-1.096 4.412-2.642 5.988-3.213 1.665-.599 3.393-1.05 5.409-1.415 1.81-.325 2.091-.336 10.394-.336 6.164 0 8.894.051 9.826.182 6.199.896 9.72 2.494 13.06 5.934 1.629 1.678 2.613 2.962 5.08 6.614a2827.98 2827.98 0 0 0 5.63 8.29c2.766 4.046 23.063 35.96 26.245 41.26 1.019 1.695 1.91 4.228 2.18 6.197.17 1.233.093 4.24-.136 5.42-.697 3.618-2.308 7.167-5.039 11.099-2.203 3.167-8.83 11.748-10.165 13.152-1.582 1.666-4.307 3.994-5.912 5.056-2.877 1.894-6.504 2.99-11.139 3.366-2.56.206-51.01.206-53.026-.006-5.104-.525-9.668-2.841-13.799-7.024-1.488-1.5-2.543-2.91-5.472-7.28-1.184-1.764-2.197-3.213-2.25-3.213-.059-.006-.92 1.215-1.922 2.71-3.1 4.622-4.096 5.975-5.543 7.504-3.562 3.777-7.424 6.025-12.129 7.058-1.359.297-1.734.302-16.88.337-8.52.017-16.078-.023-16.799-.08"/></defs><g fill="none" fill-rule="evenodd"><path fill="#004DFF" d="M0 0H256V256H0z"/><g transform="translate(30 73)"><mask id="b" fill="#fff"><use xlink:href="#a"/></mask><use fill="#004DFF" xlink:href="#a"/><g fill="#FFF" mask="url(#b)"><path d="M0 0H196V110H0z"/></g></g></g></svg>